<?xml version="1.0" encoding="UTF-8" standalone="no"?>
<!-- Created with Inkscape (http://www.inkscape.org/) -->

<svg
   width="1280"
   height="720"
   viewBox="0 0 338.66667 190.5"
   version="1.1"
   id="svg5"
   inkscape:version="1.1.2 (b8e25be833, 2022-02-05)"
   sodipodi:docname="background1.svg"
   xmlns:inkscape="http://www.inkscape.org/namespaces/inkscape"
   xmlns:sodipodi="http://sodipodi.sourceforge.net/DTD/sodipodi-0.dtd"
   xmlns="http://www.w3.org/2000/svg"
   xmlns:svg="http://www.w3.org/2000/svg">
  <sodipodi:namedview
     id="namedview7"
     pagecolor="#ffffff"
     bordercolor="#666666"
     borderopacity="1.0"
     inkscape:pageshadow="2"
     inkscape:pageopacity="0.0"
     inkscape:pagecheckerboard="0"
     inkscape:document-units="px"
     showgrid="false"
     inkscape:zoom="0.33512179"
     inkscape:cx="377.47471"
     inkscape:cy="440.13849"
     inkscape:window-width="1294"
     inkscape:window-height="704"
     inkscape:window-x="72"
     inkscape:window-y="27"
     inkscape:window-maximized="1"
     inkscape:current-layer="layer1"
     units="px"
     inkscape:snap-others="true"
     inkscape:snap-nodes="true" />
  <defs
     id="defs2" />
  <g
     inkscape:label="Layer 1"
     inkscape:groupmode="layer"
     id="layer1">
    <path
       id="rect290"
       style="fill:#aaeeff;stroke-width:0.267201"
       d="M -0.41482631,-1.716691 V 191.80276 H 340.36682 V -1.716691 Z" />
    <path
       id="path978"
       style="fill:#55ddff;stroke-width:0.191095"
       d="M 182.82118,2.9646769 C 148.65782,3.10448 106.07091,9.2600464 52.446497,24.488428 40.044945,37.162586 97.411474,74.082401 57.592963,84.829964 18.358886,81.062821 23.378824,52.651538 9.5110037,29.083497 3.6215476,41.264048 1.3917349,53.736615 -0.29457615,66.252285 V 191.56918 H 340.0676 V 88.520176 C 316.75999,68.152858 296.09231,2.5011491 182.82118,2.9646769 Z" />
    <path
       id="path975"
       style="fill:#2c89a0;stroke-width:0.192711"
       d="m 184.78986,6.6812458 c -1.2742,-0.0076 -2.54878,-0.00685 -3.82365,0.00155 -32.70984,0.3938931 -64.90994,5.9250912 -96.160186,13.3805792 -10.034374,2.419057 -19.973093,5.079858 -29.845833,7.882205 -1.092091,2.194565 -0.0029,4.553926 0.821399,6.682279 2.28329,5.173295 5.891454,9.882328 9.068842,14.726751 4.369382,6.445744 8.796034,13.051245 10.491967,20.314523 0.932509,4.500448 0.126672,9.478226 -3.547201,13.135115 -3.406344,3.500919 -8.477484,5.827156 -13.798265,7.01766 -2.526526,0.259254 -4.990473,-0.43679 -7.452571,-0.766879 C 41.787005,87.493818 33.387145,83.918707 27.778073,78.283077 21.759664,72.385573 18.490021,65.11927 15.912328,57.914293 13.715028,51.948066 11.898353,45.907729 9.4854489,39.990323 4.6269524,54.313703 3.5501945,69.169906 1.4651136,83.865163 0.94941571,87.743458 0.22457639,91.605863 -0.22809767,95.487711 V 191.82085 H 340.06121 V 95.359036 C 333.9352,91.148965 329.75538,85.522691 325.48876,80.139809 316.89018,69.006031 308.8135,57.578974 298.37669,47.428628 288.03861,37.224443 275.715,28.19741 261.35739,21.62607 246.05779,14.545409 228.92367,10.187973 211.43392,8.2170695 202.60888,7.1914082 193.70928,6.734431 184.78986,6.6812458 Z" />
    <ellipse
       style="fill:#00ccff;stroke-width:0.111587"
       id="path2112-6"
       cx="220.41357"
       cy="69.569923"
       rx="3.6413655"
       ry="3.6752648" />
    <ellipse
       style="fill:#00ccff;stroke-width:0.159404"
       id="path2112-7"
       cx="123.51666"
       cy="59.978146"
       rx="5.2017732"
       ry="5.2501988" />
    <ellipse
       style="fill:#00ccff;stroke-width:0.150019"
       id="path2112-5"
       cx="64.006821"
       cy="116.57458"
       rx="4.8955193"
       ry="4.9410944" />
    <ellipse
       style="fill:#00ccff;stroke-width:0.112616"
       id="path2112-5-3"
       cx="173.07632"
       cy="113.81661"
       rx="3.6749532"
       ry="3.7091653" />
    <ellipse
       style="fill:#00ccff;stroke-width:0.195124"
       id="path2112"
       cx="263.11816"
       cy="95.30809"
       rx="6.367414"
       ry="6.4266915" />
    <path
       id="path957"
       style="fill:#003380;stroke-width:0.227937"
       d="m 208.46601,135.48193 a 32.312746,22.154287 0 0 0 -29.3416,13.30529 26.967444,16.754288 0 0 0 -16.25051,-3.29634 26.967444,16.754288 0 0 0 -23.89399,9.26813 12.078129,7.8685349 0 0 0 -11.97348,-6.46135 12.078129,7.8685349 0 0 0 -4.60644,0.62546 24.262039,12.481688 0 0 0 -19.75166,-5.10535 24.262039,12.481688 0 0 0 -24.068104,12.54772 24.262039,12.481688 0 0 0 0.341763,1.98679 h -0.01825 a 39.722089,8.6261165 0 0 0 -39.691541,-7.50632 39.722089,8.6261165 0 0 0 -39.06332188,7.50632 h -0.34176294 v 32.12707 H 339.73827 v -32.12707 h -2.82647 a 23.910118,11.477498 0 0 0 -22.8546,-7.84132 23.910118,11.477498 0 0 0 -22.47281,7.84132 h -7.9176 a 34.099405,10.191031 0 0 0 -34.2151,-9.25442 34.099405,10.191031 0 0 0 -10.60996,0.53828 32.312746,22.154287 0 0 0 -30.37572,-14.15421 z m -70.4508,20.60833 a 26.967444,16.754288 0 0 0 -0.0524,0.0758 h -10.85993 z m -22.9887,0.142 a 12.078129,7.8685349 0 0 0 0.004,0.0666 H 102.8424 Z m 101.09945,1.34952 a 34.099405,10.191031 0 0 0 -0.0306,0.0541 h -7.37113 z" />
    <path
       style="fill:#003380"
       id="path2659"
       sodipodi:type="arc"
       sodipodi:cx="191.32922"
       sodipodi:cy="173.43808"
       sodipodi:rx="16.786484"
       sodipodi:ry="6.6142755"
       sodipodi:start="0"
       sodipodi:end="6.2725388"
       sodipodi:arc-type="slice"
       d="m 208.11571,173.43808 a 16.786484,6.6142755 0 0 1 -16.74181,6.61425 16.786484,6.6142755 0 0 1 -16.83092,-6.57904 16.786484,6.6142755 0 0 1 16.65221,-6.64927 16.786484,6.6142755 0 0 1 16.91957,6.54364 l -16.78554,0.0704 z" />
    <path
       style="fill:#003380"
       id="path2669"
       sodipodi:type="arc"
       sodipodi:cx="100.93812"
       sodipodi:cy="173.55846"
       sodipodi:rx="12.3252"
       sodipodi:ry="8.4108391"
       sodipodi:start="0"
       sodipodi:end="6.2725388"
       sodipodi:arc-type="slice"
       d="m 113.26332,173.55846 a 12.3252,8.4108391 0 0 1 -12.2924,8.41081 12.3252,8.4108391 0 0 1 -12.357827,-8.36604 12.3252,8.4108391 0 0 1 12.226607,-8.45534 12.3252,8.4108391 0 0 1 12.42292,8.32102 l -12.3245,0.0896 z" />
    <path
       style="fill:#003380"
       id="path2671"
       sodipodi:type="arc"
       sodipodi:cx="91.950233"
       sodipodi:cy="165.32802"
       sodipodi:rx="11.190396"
       sodipodi:ry="14.340088"
       sodipodi:start="0"
       sodipodi:end="6.2725388"
       sodipodi:arc-type="slice"
       d="M 103.14063,165.32802 A 11.190396,14.340088 0 0 1 91.980018,179.66806 11.190396,14.340088 0 0 1 80.759996,165.40435 11.190396,14.340088 0 0 1 91.86088,150.98839 11.190396,14.340088 0 0 1 103.14,165.17535 l -11.189767,0.15267 z" />
    <path
       id="path945"
       style="fill:#002255;stroke-width:0.234695"
       d="m 209.09693,140.26543 c -9.43301,0.18184 -18.30491,3.87521 -22.9763,9.12796 -1.18368,1.27404 -1.99221,2.68312 -3.08698,3.98001 -1.52342,1.24889 -4.63933,1.09114 -6.27954,0.024 -6.62527,-3.10365 -15.82785,-3.7123 -23.32532,-1.52527 -5.61474,1.58582 -10.06309,4.71954 -12.1942,8.42448 -0.79641,1.03419 -2.73576,1.38342 -4.40122,1.26245 -3.95562,-0.0437 -7.91187,-0.005 -11.8678,-0.0182 -2.12883,-0.67548 -4.26015,-1.3477 -6.38992,-2.02193 0.0442,0.7199 0.0895,1.43977 0.13279,2.15968 -6.24187,0 -12.48375,0 -18.72562,0 -3.802097,-1.20915 -7.604109,-2.4184 -11.406167,-3.6276 3.54478,-0.53402 7.009849,-1.30034 10.234957,-2.39856 2.62047,-0.72168 5.52036,-0.27615 8.26856,-0.42791 3.74025,-0.0201 7.48049,-0.0409 11.22074,-0.0605 0.0408,0.62506 0.0793,1.25019 0.11906,1.87527 2.25448,-0.46959 4.2851,-1.31018 6.53874,-1.76715 2.15988,-0.32208 4.38718,-0.11379 6.57766,-0.18071 -2.09261,-1.57067 -5.80679,-2.10537 -8.70917,-1.20278 -1.53916,0.38448 -3.43644,0.32024 -4.65998,-0.46077 -1.50803,-0.83143 -2.84605,-1.80542 -4.61934,-2.41514 -6.38862,-2.48006 -14.602949,-2.7921 -21.493514,-1.14275 -2.789398,0.69946 -5.225044,1.64808 -7.332719,3.03755 -2.359285,1.58775 -3.973672,3.76326 -3.709421,6.00259 0.228924,1.59065 0.927291,3.26367 1.366818,4.88224 -3.243423,0 -6.486848,0 -9.73027,0 -0.01477,-1.74116 -2.024138,-3.17759 -4.361643,-3.87544 -5.34247,-1.74251 -11.242816,-2.6251 -17.073777,-3.14173 -12.988825,-1.14183 -26.276262,-0.95698 -39.063964,1.03583 -3.9621729,0.66035 -7.9742175,1.52765 -11.2547691,3.15576 -0.75939173,0.37758 -1.23328238,0.97489 -1.04884566,1.5982 0.001521,9.29325 0.003042,18.58648 0.004553,27.87973 113.37710176,0 226.75421176,0 340.13131176,0 -0.003,-8.90732 -0.006,-17.81465 -0.009,-26.72197 -1.24353,-0.19784 -2.01415,-0.93606 -2.33567,-1.69174 -1.40137,-1.90535 -4.03319,-3.47664 -6.95176,-4.47231 -1.09009,-0.37519 -2.43631,-0.74874 -3.64605,-0.99037 -2.65457,-0.53407 -5.40419,-0.82566 -8.11365,-0.83291 -5.02751,-0.0235 -10.0552,0.78863 -14.24056,2.62071 -2.24195,1.03001 -4.11404,2.41535 -5.22786,4.04763 -0.73532,0.97744 -2.4386,1.38045 -4.0247,1.39274 -2.15932,0.009 -4.31999,-0.0316 -6.48117,-0.006 -2.06649,6.3e-4 -4.13296,0.002 -6.19943,0.002 0.46171,-2.08318 -1.11713,-4.29765 -3.97912,-5.32958 -5.55168,-2.46337 -12.21466,-3.35047 -18.77592,-3.90147 -6.29879,-0.49901 -12.65857,-0.30557 -18.94586,0.27364 -2.15313,0.0939 -4.22464,-0.90695 -4.72541,-2.26341 -1.5844,-2.61014 -3.92434,-5.08886 -6.9564,-7.01684 -5.29729,-3.4433 -12.68925,-5.49382 -20.272,-5.28923 z m 15.38984,16.80937 c -0.94862,1.46974 -1.57391,3.02688 -2.65448,4.4583 -0.75772,0.93067 -2.30961,1.52043 -3.93463,1.50229 -2.18172,0.0636 -4.36667,-0.0265 -6.5487,0.0322 -1.95901,0.009 -3.86236,-0.38594 -5.53538,-1.02868 -2.72889,-0.86187 -5.45934,-1.72168 -8.18692,-2.58526 3.39312,-0.54149 6.6595,-1.23186 9.78527,-2.28981 2.64859,-0.89675 5.72215,-0.42059 8.57124,-0.57523 2.93909,-0.0201 5.87816,-0.0409 8.81725,-0.0604 -0.10456,0.1822 -0.20909,0.36439 -0.31365,0.54659 z" />
    <path
       style="fill:#002255"
       id="path2804"
       sodipodi:type="arc"
       sodipodi:cx="91.089844"
       sodipodi:cy="169.56252"
       sodipodi:rx="12.669045"
       sodipodi:ry="13.185254"
       sodipodi:start="0"
       sodipodi:end="6.2725388"
       sodipodi:arc-type="slice"
       d="m 103.75889,169.56252 a 12.669045,13.185254 0 0 1 -12.635326,13.1852 12.669045,13.185254 0 0 1 -12.702586,-13.11502 12.669045,13.185254 0 0 1 12.567706,-13.25502 12.669045,13.185254 0 0 1 12.769486,13.04446 l -12.668326,0.14038 z" />
    <path
       style="fill:#002255"
       id="path2806"
       sodipodi:type="arc"
       sodipodi:cx="107.06445"
       sodipodi:cy="169.56252"
       sodipodi:rx="10.697865"
       sodipodi:ry="10.436562"
       sodipodi:start="0"
       sodipodi:end="6.2725388"
       sodipodi:arc-type="slice"
       d="m 117.76232,169.56252 a 10.697865,10.436562 0 0 1 -10.66939,10.43652 10.697865,10.436562 0 0 1 -10.72619,-10.38097 10.697865,10.436562 0 0 1 10.61229,-10.49178 10.697865,10.436562 0 0 1 10.78268,10.32511 l -10.69726,0.11112 z" />
    <path
       style="fill:#002255"
       id="path2808"
       sodipodi:type="arc"
       sodipodi:cx="184.96803"
       sodipodi:cy="167.14276"
       sodipodi:rx="16.622166"
       sodipodi:ry="13.474045"
       sodipodi:start="0"
       sodipodi:end="6.2725388"
       sodipodi:arc-type="slice"
       d="m 201.5902,167.14276 a 16.622166,13.474045 0 0 1 -16.57793,13.474 16.622166,13.474045 0 0 1 -16.66617,-13.40227 16.622166,13.474045 0 0 1 16.48921,-13.54534 16.622166,13.474045 0 0 1 16.75395,13.33016 l -16.62123,0.14345 z" />
    <path
       id="path19187"
       style="fill:#003380;fill-opacity:1;stroke-width:0.225115"
       d="m 91.089844,169.56252 c -0.03179,-1.3e-4 -0.06355,0.001 -0.09535,0.001 a 33.385763,4.4569068 0 0 1 -20.098719,2.33632 c -0.553245,0.15179 -1.106256,0.30409 -1.646273,0.47353 -3.495146,1.10381 -6.782322,2.65 -8.550131,4.7773 -1.173739,1.41096 -1.427874,3.07291 -0.619794,4.57369 0.214142,0.39233 0.485918,0.76852 0.804746,1.12912 0.337646,-1.65962 2.913158,-2.924 5.444297,-3.82352 6.231367,-2.09323 13.715191,-2.93395 21.049946,-3.10769 8.808971,-0.12965 17.996414,0.6087 25.445924,3.13932 2.28915,0.82328 4.55932,1.90985 5.24899,3.36212 0.44498,0.92253 -0.0867,1.83173 -1.03624,2.61128 0.36672,-0.21654 0.71932,-0.4418 1.05577,-0.67714 0.8821,-0.60153 1.60485,-1.29343 2.12648,-2.0314 a 2.3421394,5.932607 0 0 1 -0.96099,-4.76317 2.3421394,5.932607 0 0 1 0.0488,-1.14157 c -0.34067,-0.32314 -0.70913,-0.63618 -1.12183,-0.93224 a 11.218387,3.041717 0 0 1 -7.36685,-2.84114 11.218387,3.041717 0 0 1 0.15337,-0.42271 c -5.74199,-1.74072 -12.273623,-2.48941 -18.701746,-2.6456 -0.393551,-0.0104 -0.786948,-0.0159 -1.180421,-0.0175 z" />
    <path
       id="path19187-3"
       style="fill:#003380;fill-opacity:1;stroke-width:0.186247"
       d="m 169.00938,164.36009 c -0.018,-0.001 -0.0358,-9e-5 -0.0538,-0.001 a 18.860067,5.4003413 3.3651463 0 1 -11.50072,2.15947 c -0.3228,0.16526 -0.64543,0.33099 -0.96201,0.51804 -2.04957,1.21926 -4.01342,2.98023 -5.16166,5.49477 -0.21696,0.47467 -0.39184,0.97723 -0.52514,1.49465 a 10.859323,9.4269646 3.3651463 0 1 3.73635,0.86004 c 3.6251,-2.24242 7.83697,-2.98828 11.92175,-2.95572 4.97694,0.13528 10.10579,1.33309 14.12687,4.64114 1.23239,1.07174 2.43491,2.46113 2.72056,4.24066 0.18533,1.13064 -0.17881,2.21291 -0.76981,3.12435 0.2222,-0.24977 0.43687,-0.5107 0.64333,-0.78421 0.54024,-0.69835 0.99741,-1.51123 1.34407,-2.38657 a 1.3231061,7.1884166 3.3651463 0 1 -0.20326,-5.79314 1.3231061,7.1884166 3.3651463 0 1 0.10845,-1.37939 c -0.16913,-0.40217 -0.3546,-0.79312 -0.5663,-1.1649 a 6.3374179,3.6855852 3.3651463 0 1 -3.95212,-3.68051 6.3374179,3.6855852 3.3651463 0 1 0.11641,-0.50615 c -3.11432,-2.29595 -6.74455,-3.41854 -10.35851,-3.82062 -0.2212,-0.0256 -0.44284,-0.0454 -0.66463,-0.0603 z" />
    <path
       id="path19187-3-6"
       style="fill:#003380;fill-opacity:1;stroke-width:0.136289"
       d="m 280.96942,173.04968 c -0.028,-3.4e-4 -0.0557,-3e-5 -0.0836,-3.4e-4 a 29.282386,1.8625107 0.68749441 0 1 -17.8832,0.74365 c -0.50194,0.0569 -1.00362,0.11398 -1.49589,0.17839 -3.187,0.41988 -6.24072,1.0263 -8.02619,1.89222 -0.33736,0.16346 -0.60929,0.33652 -0.81657,0.51471 a 16.878765,3.2476915 0.19041697 0 1 5.80989,0.29616 c 5.63689,-0.77221 12.18619,-1.02906 18.53787,-1.01785 7.73896,0.0466 15.71413,0.45908 21.96676,1.59826 1.91632,0.36907 3.7862,0.84753 4.23037,1.46034 0.28818,0.38935 -0.27804,0.76205 -1.19702,1.07592 0.34551,-0.086 0.67931,-0.17587 1.00035,-0.27006 0.84005,-0.24049 1.55094,-0.52041 2.08998,-0.82185 a 1.9105357,2.665714 32.516451 0 1 -0.31606,-1.99496 1.9105357,2.665714 32.516451 0 1 0.16863,-0.47502 c -0.26299,-0.13849 -0.55139,-0.27312 -0.88057,-0.40115 a 9.8435789,1.2705933 0.50153644 0 1 -6.1454,-1.26745 9.8435789,1.2705933 0.50153644 0 1 0.18101,-0.1743 c -4.84265,-0.79065 -10.48752,-1.17723 -16.1071,-1.31569 -0.34395,-0.009 -0.6886,-0.0156 -1.03347,-0.0208 z" />
  </g>
</svg>
