<?xml version="1.0" encoding="UTF-8" standalone="no"?>
<!-- Created with Inkscape (http://www.inkscape.org/) -->

<svg
   width="200mm"
   height="200mm"
   viewBox="0 0 200 200"
   version="1.1"
   id="svg2936"
   inkscape:version="1.1.2 (b8e25be833, 2022-02-05)"
   sodipodi:docname="cross.svg"
   xmlns:inkscape="http://www.inkscape.org/namespaces/inkscape"
   xmlns:sodipodi="http://sodipodi.sourceforge.net/DTD/sodipodi-0.dtd"
   xmlns="http://www.w3.org/2000/svg"
   xmlns:svg="http://www.w3.org/2000/svg">
  <sodipodi:namedview
     id="namedview2938"
     pagecolor="#ffffff"
     bordercolor="#666666"
     borderopacity="1.0"
     inkscape:pageshadow="2"
     inkscape:pageopacity="0.0"
     inkscape:pagecheckerboard="0"
     inkscape:document-units="px"
     showgrid="false"
     inkscape:zoom="0.5"
     inkscape:cx="235"
     inkscape:cy="467"
     inkscape:window-width="1294"
     inkscape:window-height="704"
     inkscape:window-x="72"
     inkscape:window-y="27"
     inkscape:window-maximized="1"
     inkscape:current-layer="layer1" />
  <defs
     id="defs2933" />
  <g
     inkscape:label="Layer 1"
     inkscape:groupmode="layer"
     id="layer1">
    <path
       id="path3008"
       style="fill:#0000ab;stroke-width:1.21;fill-opacity:0.74250501"
       d="M 247.58594 39.820312 L 221.0332 59.677734 C 224.12261 128.89237 225.68186 198.21494 226.5293 267.55664 C 225.7915 267.57872 225.64069 267.57779 224.85938 267.60156 C 214.34147 267.92154 203.82658 268.35373 193.31055 268.73047 C 151.681 270.99028 110.06655 273.6949 68.404297 275.25391 L 44.697266 292.57422 C 87.887979 288.56122 131.15539 285.42078 174.43945 282.61523 C 184.983 282.19724 195.52357 281.68907 206.07031 281.36133 C 218.68202 280.96941 221.75226 280.9087 226.69336 280.7832 C 226.97938 306.95275 227.17583 333.1236 227.31055 359.29297 C 227.5483 399.09572 227.10283 438.87524 226.17578 478.63086 C 195.03444 478.36821 163.9265 476.78404 132.85156 474.63086 C 117.52013 473.44337 102.12841 473.6431 86.783203 474.38086 C 79.867046 475.09871 72.917188 475.4652 66.011719 476.28906 C 63.994902 476.65001 61.953862 476.78612 59.929688 477.06055 C 58.580192 477.07944 57.052693 477.52642 55.882812 478.32617 C 54.602026 479.44639 53.052135 479.7436 51.556641 480.34961 C 50.944796 480.48832 49.572117 479.95801 50.007812 480.99609 C 49.736292 481.17146 51.466739 483.26535 52.033203 483.87109 L 22.089844 498.7168 C 22.352767 500.14296 23.10331 501.85138 24.166016 502.56836 C 25.147543 503.40462 25.289369 502.83412 26.335938 502.53516 C 28.089987 502.65686 29.970766 502.14962 31.587891 501.49414 C 33.741913 500.4206 31.33836 501.8073 32.8125 500.41016 C 33.639302 499.62632 33.175019 500.63613 34.154297 500.17578 C 34.462309 500.03103 34.294441 499.35365 34.779297 499.34961 C 36.888277 498.96126 38.993781 498.73699 41.101562 498.30469 C 48.104317 497.10624 55.190113 496.66933 62.228516 495.73828 C 77.888168 494.52702 93.61863 493.90109 109.31641 494.62109 C 148.09655 496.3931 186.91637 497.20405 225.71875 495.55859 C 224.07303 557.20534 221.36264 618.79566 218.23047 680.32227 C 217.43978 693.90343 216.64811 707.4852 215.85742 721.06641 L 238.93359 704.16406 C 239.50524 690.73521 240.0768 677.30577 240.64844 663.87695 C 243.00322 607.59968 244.93747 551.2675 246.17578 494.90625 C 326.62307 492.5146 407.14951 490.97644 487.55469 495.23047 C 487.61776 514.67542 487.90106 534.11978 488.45703 553.56055 C 490.73261 596.13836 490.44578 594.4564 493.39453 635.78516 C 495.26827 662.04709 497.85395 688.28993 498.9668 714.60742 C 499.10475 717.87732 499.07921 721.1532 499.13477 724.42578 L 525.95312 710.09961 L 525.95508 710.09961 C 518.89216 668.96455 513.94361 627.36844 510.5293 585.72852 C 509.3708 571.60004 508.58437 557.44065 507.61133 543.29688 C 506.7522 527.63615 506.24204 511.97282 506.01562 496.31055 C 507.75397 496.42237 509.49225 496.51712 511.23047 496.63477 C 572.59522 500.55576 634.33554 503.27525 695.08203 513.58398 L 720.47852 492.27539 C 656.50147 487.6573 592.39976 485.32852 528.34766 482.0957 C 520.86004 481.62603 513.3706 481.22266 505.88086 480.84766 C 505.70252 418.8353 509.68448 356.84158 514.01953 295.00781 C 514.52743 288.29359 515.00216 281.57702 515.49023 274.86133 C 527.46359 275.81081 539.43456 276.79404 551.42969 277.35938 C 565.18649 277.64098 578.94374 277.85596 592.69922 278.20508 C 600.24652 278.75336 607.73249 279.72994 615.30273 279.93555 C 628.11201 279.11582 640.88021 277.81649 653.71484 277.3457 C 662.04719 277.1356 670.3762 277.21221 678.67578 278 C 683.06971 278.56424 687.46658 278.97811 691.89648 279.01953 C 694.48607 279.06262 697.05476 279.019 699.62695 278.72461 C 703.97341 277.87236 708.4063 277.85725 712.81641 277.82031 C 715.95156 277.78856 719.07645 277.57806 722.19531 277.27344 C 723.30075 277.37976 724.54945 276.67116 725.58984 277.07422 C 725.02696 275.70525 726.1491 277.22105 725.56641 276.2793 L 751.64453 261.01953 C 751.17103 260.26728 750.67358 259.82757 749.89258 259.20312 C 749.32134 259.81276 747.09868 258.70875 746.26367 259.38281 C 743.13626 259.75963 740.01878 260.21642 736.86133 260.24219 C 732.42843 260.46363 727.97466 260.1924 723.56641 260.77148 C 721.08156 261.25531 718.58884 261.48058 716.05273 261.44531 C 711.58072 261.54369 707.1153 261.51593 702.67188 260.90625 C 694.1374 260.1097 685.60769 259.80014 677.03516 260.27148 C 664.29656 260.72505 651.60648 261.85064 638.90625 262.86914 C 631.38238 262.72231 623.96688 261.60275 616.47461 260.96484 C 602.32595 261.04093 588.17503 261.22915 574.02539 261.05469 C 554.89238 260.6934 535.83418 258.88591 516.74023 257.7207 C 519.52046 218.53171 522.11934 179.32988 525.20117 140.16406 C 526.85611 119.95384 528.46784 99.73991 530.05078 79.523438 C 530.4999 72.95466 531.01588 66.389577 531.34375 59.8125 C 531.41518 58.08755 531.39679 56.387363 531.68555 54.691406 C 531.86621 53.370949 531.91609 52.03327 531.96484 50.701172 C 531.97753 49.975766 531.83657 49.253208 531.70703 48.535156 L 504.48438 62.380859 C 504.5558 62.567152 504.62545 62.753092 504.69727 62.939453 C 504.80234 63.591259 504.88607 64.216817 504.78516 64.876953 C 504.71901 66.136326 504.59731 67.38842 504.42383 68.636719 C 504.29495 70.397714 504.42627 72.169118 504.39062 73.933594 C 504.36796 80.328256 504.19558 86.720818 503.88672 93.107422 C 503.01629 112.90618 502.24555 132.70925 501.41016 152.50977 C 499.78357 187.29398 498.02236 222.07203 496.01172 256.83398 C 494.16144 256.79408 492.31273 256.73206 490.46094 256.7207 C 475.21999 256.37707 471.286 256.10665 455.74609 256.53125 C 426.15228 257.3399 396.65311 260.19064 367.07031 261.25391 C 340.03166 262.74077 313.01619 264.61749 285.95898 265.75391 C 259.46187 266.86681 258.35419 266.77013 246.98242 267.01172 C 246.36872 191.27222 245.88531 115.51292 247.58594 39.820312 z M 531.70703 48.535156 L 531.88086 48.447266 C 531.79847 48.338377 531.71716 48.229982 531.63477 48.121094 C 531.6576 48.258541 531.68215 48.397234 531.70703 48.535156 z M 115.74023 83.597656 A 76.644071 76.644071 0 0 0 39.095703 160.24023 A 76.644071 76.644071 0 0 0 115.74023 236.88477 A 76.644071 76.644071 0 0 0 192.38477 160.24023 A 76.644071 76.644071 0 0 0 115.74023 83.597656 z M 116.69922 103.62891 C 132.43039 103.81917 147.71048 111.04041 158.25586 122.83203 C 175.68217 141.8418 176.92354 173.17978 161.37305 193.67383 C 149.93014 209.4411 129.31486 218.95836 109.82227 216.48438 C 89.437259 214.40125 70.685902 200.52021 63.226562 181.35742 C 58.405776 169.39493 58.103524 155.42371 61.757812 143.37891 C 68.296138 120.95378 90.314966 104.43634 113.54883 103.68555 C 114.60031 103.63501 115.65047 103.61622 116.69922 103.62891 z M 444.50195 271.75195 C 452.7181 271.73625 457.60832 271.97312 468.90234 272.30078 C 477.63052 272.38826 486.33859 272.81433 495.03906 273.37305 C 494.38323 284.22352 493.71462 295.07344 492.99609 305.91992 C 489.82823 363.88667 487.71235 421.94914 487.55078 480.01758 C 408.44203 476.79948 329.2349 478.15421 250.08008 478.57812 C 248.88923 478.59634 247.69857 478.59173 246.50781 478.60547 C 247.37976 433.79892 247.80707 388.9773 247.57227 344.14844 C 247.44173 322.90244 247.25849 301.65023 247.08398 280.39844 C 251.96375 280.22615 254.74332 280.1328 266.92578 279.68359 C 293.69698 278.69646 320.43675 277.15651 347.19336 275.85547 C 376.4199 274.93687 405.57416 272.3705 434.81641 271.85742 C 438.65494 271.79007 441.76324 271.75719 444.50195 271.75195 z M 671.9082 302.05078 C 669.57438 305.06019 666.07625 309.50553 664.11914 312.40625 C 658.85944 320.20168 654.12082 328.41198 648.98633 336.30859 C 639.7839 350.46138 638.96825 351.39106 631.06836 362.09375 C 630.77507 361.8872 630.48222 361.68212 630.18945 361.47461 C 617.59335 353.12366 614.57747 350.88763 601.86719 343.36914 C 591.71061 337.36123 581.30117 332.05012 571.1582 326.00977 C 569.23189 324.86258 567.37329 323.53354 565.48047 322.29492 L 546.76562 346.59375 C 564.69975 354.34082 582.66047 362.4742 599.89844 372.79492 C 604.78438 375.7202 609.55469 378.96386 614.38281 382.04883 C 614.50829 382.13651 614.63429 382.22519 614.75977 382.3125 C 600.73386 398.0322 585.06325 411.85042 568.17969 423.80469 C 563.31793 426.73254 558.59061 430.35454 553.25195 432.24805 C 553.11967 432.24533 552.96356 432.30048 552.81445 432.37305 L 569.20117 459.10742 C 569.23897 459.0923 569.27704 459.08058 569.31445 459.06055 C 571.9193 457.82207 568.71167 459.11996 570.41016 458.33594 C 575.08638 454.80083 579.78196 451.28464 584.19531 447.35352 C 602.00414 431.68839 619.03312 414.9346 634.46875 396.4707 C 642.49439 402.53858 650.32942 408.99787 657.70312 416.24609 C 663.47106 421.91584 665.02142 423.986 670.13867 430.00781 C 674.61431 435.62321 679.27853 441.11452 682.94531 447.51953 L 702.78906 424.18359 C 698.41551 418.15309 693.26417 413.08477 688.34961 407.71289 C 683.7105 402.848 680.06693 398.8709 675.08789 394.36914 C 667.35505 387.37751 659.12385 381.38225 650.78516 375.62109 C 654.9209 370.18008 653.68363 371.76602 664.21094 357.35938 C 671.93433 346.78979 679.3505 335.43067 689.44531 327.39258 L 671.9082 302.05078 z M 552.81445 432.37305 L 552.74805 432.26758 C 551.90075 433.05939 552.31102 432.61872 552.81445 432.37305 z M 552.74805 432.26758 C 552.75939 432.25624 552.76015 432.25939 552.77148 432.24805 C 552.75637 432.24049 552.74162 432.24193 552.72461 432.23438 L 552.74805 432.26758 z M 185.68164 532.55078 C 185.64305 532.56212 185.605 532.57359 185.56641 532.58984 C 182.88621 533.65541 186.16988 532.57075 184.42383 533.24219 C 179.52651 536.46408 174.61389 539.66459 169.95312 543.29883 C 151.15854 557.76644 133.07033 573.36966 116.46094 590.78516 C 108.84911 584.20568 101.45255 577.24985 94.568359 569.53516 C 89.183368 563.50054 87.771294 561.33364 83.058594 554.99023 C 78.959549 549.09432 74.664127 543.31068 71.423828 536.67969 L 50.097656 558.66797 C 54.06768 564.97146 58.876763 570.36526 63.429688 576.04688 C 67.740904 581.20457 71.116859 585.41094 75.791016 590.22852 C 83.050313 597.71062 90.872115 604.23149 98.816406 610.52539 C 94.333864 615.68445 95.671056 614.18335 84.224609 627.87109 C 75.826851 637.91326 67.684564 648.76392 57.085938 656.125 L 72.929688 682.55664 C 75.455227 679.70621 79.236348 675.50098 81.378906 672.73438 C 87.13688 665.2994 92.401348 657.41717 98.041016 649.87305 C 108.14877 636.35201 109.02294 635.47595 117.60547 625.3125 C 117.88455 625.53776 118.16482 625.76208 118.44336 625.98828 C 130.46661 635.14472 133.3299 637.57307 145.52148 645.90625 C 155.2636 652.56517 165.30481 658.54397 175.03125 665.23438 C 176.87846 666.50501 178.64532 667.95477 180.45312 669.31445 L 200.71484 646.29102 C 183.32555 637.3883 165.93463 628.09724 149.4082 616.67188 C 144.72395 613.4335 140.17473 609.88417 135.55859 606.49023 C 135.43924 606.39461 135.32053 606.29837 135.20117 606.20312 C 150.22448 591.43375 166.76384 578.67087 184.39258 567.8457 C 189.43525 565.24191 194.39081 561.93503 199.8418 560.39453 C 199.97355 560.40587 200.13334 560.36157 200.28711 560.29883 L 185.68164 532.55078 z M 200.28711 560.29883 L 200.34375 560.4082 C 201.24097 559.6735 200.80538 560.0868 200.28711 560.29883 z M 200.34375 560.4082 C 200.33052 560.41954 200.33392 560.4164 200.32031 560.42773 C 200.33543 560.43529 200.34992 560.43775 200.36719 560.44531 L 200.34375 560.4082 z "
       transform="scale(0.26458333)" />
  </g>
</svg>
